<svg width="52" height="47" viewBox="0 0 52 47" fill="none" xmlns="http://www.w3.org/2000/svg">
<mask id="mask0_144532_6" style="mask-type:luminance" maskUnits="userSpaceOnUse" x="0" y="0" width="52" height="47">
<path d="M0.0927391 0.275055H51.1195V46.663H0.0927391V0.275055Z" fill="white"/>
</mask>
<g mask="url(#mask0_144532_6)">
<path d="M13.0712 31.8723C13.9397 31.9574 14.3124 32.5493 14.7464 33.044C16.5123 35.0564 18.3175 35.5953 21.1586 34.9246C23.3454 34.4078 23.9478 34.6511 25.0057 36.4063C25.3808 37.088 25.8272 37.7393 26.3395 38.3524C26.7103 38.7588 27.1835 39.0885 27.7237 39.3172C28.2639 39.5458 28.8572 39.6674 29.46 39.6734C30.0628 39.6797 30.6597 39.5695 31.2059 39.3514C31.7522 39.1338 32.234 38.8136 32.6158 38.415C32.7324 38.2913 32.857 38.1736 32.9892 38.0619C33.6903 37.5029 34.4103 37.6184 34.6665 38.4203C34.8837 39.0998 34.8914 39.8285 34.987 40.536C35.1305 41.5982 35.2504 42.6637 35.4211 43.7228C35.4876 44.0751 35.6158 44.4172 35.8012 44.737C36.7428 46.4339 39.0616 46.6283 40.229 45.0317C40.8012 44.2493 41.0565 43.2849 41.3716 42.382C41.6224 41.6629 41.6774 40.8943 41.9442 40.1822C42.2726 39.3066 42.7602 39.1751 43.7509 39.5539C44.3268 39.8077 44.9215 40.0292 45.5312 40.2165C47.6833 40.7621 49.6809 39.7758 50.2859 37.9322C50.5698 37.0672 50.7128 36.3198 49.7778 35.5755C49.1625 35.0854 48.855 34.306 48.4375 33.6427C44.0677 26.6845 39.254 19.9534 34.1131 13.3944C31.3495 9.86897 28.5369 6.36969 25.7304 2.86812C25.2066 2.21429 24.5817 1.62003 24.0497 0.970369C23.3856 0.158583 22.4948 -0.0998006 21.385 0.0331002C19.126 0.303774 17.1208 1.13206 15.2545 2.18182C7.78214 6.38478 2.90079 12.1485 1.01424 19.6761C0.617668 21.2583 0.049057 22.8167 0.326126 24.4883C0.41917 25.0491 0.0978546 25.6521 0.0391312 26.2413C-0.0960922 27.1941 0.121014 28.1592 0.659431 29.0013C1.19207 29.7899 1.90334 30.222 3.05256 30.0882C4.40481 29.9309 4.68105 30.1265 4.90643 31.2801C5.09624 32.257 5.19673 33.2467 5.36793 34.2257C5.44609 34.6565 5.56436 35.0815 5.72068 35.496C6.21154 36.8194 7.06094 37.4018 8.50748 37.441C10.106 37.4849 11.3534 36.8148 11.8457 35.554C12.0629 34.9974 12.08 34.387 12.2344 33.8101C12.4157 33.1389 12.2838 32.3596 13.0712 31.8723ZM16.8466 18.4932C16.8662 18.4572 16.8735 18.4041 16.9066 18.3878C17.0979 18.2816 17.2999 18.1899 17.51 18.1137C19.323 17.5547 20.3791 16.4342 20.8454 14.8666C21.005 14.3305 21.1497 13.7901 21.3416 13.2627C21.5489 12.5751 21.8239 11.9037 22.1629 11.2555C22.9666 9.90699 24.6601 9.36101 26.8444 9.59269C28.4105 9.75878 28.7359 10.8436 29.4229 11.8307C27.1528 12.0821 26.1546 13.259 25.9117 14.8911C25.7345 15.9577 25.8577 17.045 26.2706 18.0628C26.6835 19.0807 27.3744 19.9997 28.2861 20.7436C30.3869 22.5363 33.2838 22.7689 35.837 21.4738C36.1054 21.3376 36.3616 21.1834 36.7459 20.9696L47.0397 35.1525L46.86 35.3762L39.74 33.4249C39.7096 33.1542 39.6892 33.038 39.6856 32.9213C39.6802 32.7629 39.7038 32.6027 39.6856 32.4456C39.3795 29.7208 38.1731 27.4931 35.1259 26.2123C32.0198 24.9069 27.2121 25.2203 25.3005 28.6884C25.2051 28.8336 25.0986 28.973 24.9816 29.1059C24.4236 28.9436 23.8985 28.7995 23.3802 28.6388C22.8327 28.4693 22.2921 28.284 21.7628 28.11C23.1096 24.4303 21.1141 20.6147 16.8466 18.4932ZM38.4513 44.3596L38.0616 44.2829C37.401 43.4245 37.4059 42.4252 37.2929 41.4509C37.1654 40.3483 37.1524 39.2263 36.8962 38.1464C36.5129 36.53 34.9148 35.6681 33.1856 36.0565C32.439 36.224 31.6857 36.3986 31.1431 36.9732C30.6467 37.4983 29.9139 37.8132 29.1743 37.4456C28.6729 37.1718 28.277 36.7774 28.0361 36.312C27.3604 35.0433 26.2494 33.9801 24.8504 33.2632C24.3555 32.9682 23.7892 32.7727 23.1935 32.6908C22.598 32.6089 21.9881 32.643 21.41 32.7903C20.9646 32.8997 20.5284 33.0494 20.0749 33.1199C18.8961 33.3031 17.8661 33.1268 17.1571 32.1858C16.8686 31.8259 16.5494 31.4847 16.2017 31.1653C15.1991 30.1923 14.0152 29.4791 12.4255 29.8792C10.9009 30.2628 10.3521 31.3685 10.0989 32.6006C9.97052 33.2247 9.87826 33.8547 9.74444 34.4781C9.64945 34.9209 9.48524 35.3663 8.83831 35.384C8.19154 35.402 8.2085 34.8956 8.06376 34.5426C7.99511 34.3531 7.95045 34.1578 7.93142 33.9602C7.79579 32.977 7.67214 31.9926 7.53774 31.0097C7.22056 28.6973 5.43533 27.8217 3.38214 28.0873C3.30605 28.097 3.21673 28.0321 2.97481 27.9446C2.87722 27.3093 2.76804 26.6031 2.63282 25.7233C4.82827 26.2392 6.7694 26.6279 8.65842 27.1509C17.6552 29.6391 26.6229 32.2037 35.6327 34.6567C39.6469 35.7497 43.735 36.6452 47.7905 37.628C48.0687 37.6955 48.3534 37.7439 48.6823 37.8107C47.731 38.9719 47.2246 39.1221 45.9603 38.6503C45.5374 38.4924 45.1544 38.2584 44.7354 38.0916C44.3315 37.9036 43.8999 37.7623 43.4521 37.6722C41.8762 37.4524 40.5795 38.1146 40.0285 39.5302C39.636 40.5388 39.487 41.6145 39.1708 42.6471C38.9919 43.2309 38.6945 43.7892 38.4502 44.3596H38.4513ZM7.58033 24.2299C7.61176 23.8762 7.66635 23.5243 7.74327 23.1759C9.30932 17.9861 11.9842 13.2812 16.2631 9.31928C18.4406 7.30326 21.1958 6.04384 24.2673 5.18727L26.8375 8.35256C26.2809 8.35256 26.0024 8.37066 25.728 8.34977C22.8762 8.13219 20.8527 9.71472 20.0382 11.888C19.7842 12.565 19.5695 13.2534 19.3556 13.9407C18.9468 15.2532 18.1364 16.2282 16.4995 16.5827C16.0552 16.6975 15.6288 16.8583 15.2298 17.0616C13.5144 17.8543 12.4635 19.06 12.3698 20.7467C12.3598 21.6963 12.4062 22.6456 12.5088 23.5911C12.5482 24.2032 12.6106 24.8144 12.669 25.5002L7.58033 24.2299ZM2.86729 23.1922C2.90534 22.7845 2.91567 22.5486 2.95124 22.3157C4.05 15.1377 7.65767 9.16803 14.6191 4.86838C16.0847 3.97026 17.6479 3.19437 19.2872 2.55129C21.4507 1.69661 21.6814 1.82995 22.9223 3.58895C22.9595 3.64161 22.9269 3.73045 22.9269 3.79957C22.8477 3.84516 22.7643 3.88509 22.6775 3.9188C22.4161 3.9993 22.1477 4.0633 21.8877 4.14681C18.8006 5.13716 16.0834 6.57706 13.8751 8.71786C10.2805 12.215 7.58571 16.3184 5.96507 20.7622C5.61688 21.6951 5.26868 22.6279 4.89981 23.6166L2.86729 23.1922ZM27.3947 29.8171C28.0344 28.1026 29.6898 27.3244 31.8482 27.5997C34.9203 27.9915 36.9592 29.9435 36.9611 32.5834L27.3947 29.8171ZM35.3745 19.3121C33.3638 20.6655 31.399 20.5577 30.1044 19.0867C29.3062 18.1985 28.8801 17.1069 28.8944 15.9871C28.9093 14.6404 29.5032 14.1232 31.2473 13.9622L35.3745 19.3121ZM15.2119 26.2215C15.0297 25.1129 14.8571 24.1341 14.7109 23.1523C14.5618 22.151 14.1601 21.1463 14.6468 20.1334C17.8028 20.6588 20.0081 24.5516 18.6489 27.1955L15.2119 26.2215Z" fill="url(#paint0_linear_144532_6)"/>
</g>
<defs>
<linearGradient id="paint0_linear_144532_6" x1="25.2498" y1="0" x2="25.2498" y2="46.1262" gradientUnits="userSpaceOnUse">
<stop stop-color="#EE4737"/>
<stop offset="1" stop-color="#FAAA3F"/>
</linearGradient>
</defs>
</svg>
