<svg width="129" height="76" viewBox="0 0 129 76" fill="none" xmlns="http://www.w3.org/2000/svg">
<mask id="mask0_144532_12" style="mask-type:luminance" maskUnits="userSpaceOnUse" x="35" y="0" width="52" height="47">
<path d="M35.0927 0.275055H86.1195V46.663H35.0927V0.275055Z" fill="white"/>
</mask>
<g mask="url(#mask0_144532_12)">
<path d="M48.0712 31.8723C48.9397 31.9574 49.3124 32.5493 49.7464 33.044C51.5123 35.0564 53.3175 35.5953 56.1586 34.9246C58.3454 34.4078 58.9478 34.6512 60.0057 36.4063C60.3808 37.088 60.8272 37.7393 61.3395 38.3524C61.7103 38.7588 62.1835 39.0885 62.7237 39.3172C63.2639 39.5458 63.8572 39.6674 64.46 39.6734C65.0628 39.6797 65.6597 39.5695 66.2059 39.3514C66.7522 39.1337 67.234 38.8136 67.6158 38.415C67.7324 38.2913 67.857 38.1736 67.9892 38.0619C68.6903 37.5029 69.4103 37.6184 69.6665 38.4203C69.8837 39.0998 69.8914 39.8285 69.987 40.536C70.1305 41.5982 70.2504 42.6637 70.4211 43.7228C70.4876 44.0751 70.6158 44.4172 70.8012 44.737C71.7428 46.4339 74.0616 46.6283 75.229 45.0317C75.8012 44.2493 76.0565 43.2849 76.3716 42.382C76.6224 41.6629 76.6774 40.8943 76.9442 40.1822C77.2726 39.3066 77.7602 39.1751 78.7509 39.5539C79.3268 39.8077 79.9215 40.0292 80.5312 40.2165C82.6833 40.7621 84.6809 39.7758 85.2859 37.9322C85.5698 37.0672 85.7128 36.3198 84.7778 35.5755C84.1625 35.0854 83.855 34.306 83.4375 33.6427C79.0677 26.6845 74.254 19.9534 69.1131 13.3944C66.3495 9.86897 63.5369 6.36969 60.7304 2.86812C60.2066 2.21429 59.5817 1.62003 59.0497 0.970369C58.3856 0.158583 57.4948 -0.0998006 56.385 0.0331002C54.126 0.303774 52.1208 1.13206 50.2545 2.18182C42.7821 6.38478 37.9008 12.1485 36.0142 19.6761C35.6177 21.2583 35.0491 22.8167 35.3261 24.4883C35.4192 25.0491 35.0979 25.6521 35.0391 26.2413C34.9039 27.1941 35.121 28.1592 35.6594 29.0013C36.1921 29.7899 36.9033 30.222 38.0526 30.0882C39.4048 29.9309 39.6811 30.1265 39.9064 31.2801C40.0962 32.257 40.1967 33.2467 40.3679 34.2257C40.4461 34.6565 40.5644 35.0815 40.7207 35.496C41.2115 36.8194 42.0609 37.4018 43.5075 37.441C45.106 37.4849 46.3534 36.8148 46.8457 35.554C47.0629 34.9974 47.08 34.387 47.2344 33.8101C47.4157 33.1389 47.2838 32.3596 48.0712 31.8723ZM51.8466 18.4932C51.8662 18.4572 51.8735 18.4041 51.9066 18.3878C52.0979 18.2816 52.2999 18.1899 52.51 18.1137C54.323 17.5547 55.3791 16.4342 55.8454 14.8666C56.005 14.3305 56.1497 13.7901 56.3416 13.2627C56.5489 12.5751 56.8239 11.9037 57.1629 11.2555C57.9666 9.90699 59.6601 9.36101 61.8444 9.59269C63.4105 9.75878 63.7359 10.8436 64.4229 11.8307C62.1528 12.0821 61.1546 13.259 60.9117 14.8911C60.7345 15.9577 60.8577 17.045 61.2706 18.0628C61.6835 19.0807 62.3744 19.9997 63.2861 20.7436C65.3869 22.5363 68.2838 22.7689 70.837 21.4738C71.1054 21.3376 71.3616 21.1834 71.7459 20.9696L82.0397 35.1525L81.86 35.3762L74.74 33.4249C74.7096 33.1542 74.6892 33.038 74.6856 32.9213C74.6802 32.7629 74.7038 32.6027 74.6856 32.4456C74.3795 29.7208 73.1731 27.4931 70.1259 26.2123C67.0198 24.9069 62.2121 25.2203 60.3005 28.6884C60.2051 28.8336 60.0986 28.973 59.9816 29.1059C59.4236 28.9436 58.8985 28.7995 58.3802 28.6388C57.8327 28.4693 57.2921 28.284 56.7628 28.11C58.1096 24.4303 56.1141 20.6147 51.8466 18.4932ZM73.4513 44.3596L73.0616 44.2829C72.401 43.4245 72.4059 42.4252 72.2929 41.4509C72.1654 40.3483 72.1524 39.2263 71.8962 38.1464C71.5129 36.53 69.9148 35.6681 68.1856 36.0565C67.439 36.224 66.6857 36.3986 66.1431 36.9732C65.6467 37.4983 64.9139 37.8132 64.1743 37.4456C63.6729 37.1718 63.277 36.7774 63.0361 36.312C62.3604 35.0433 61.2494 33.9801 59.8504 33.2632C59.3555 32.9682 58.7892 32.7727 58.1935 32.6908C57.598 32.6089 56.9881 32.643 56.41 32.7903C55.9646 32.8997 55.5284 33.0494 55.0749 33.1199C53.8961 33.3031 52.8661 33.1268 52.1571 32.1858C51.8686 31.8259 51.5494 31.4847 51.2017 31.1653C50.1991 30.1923 49.0152 29.4791 47.4255 29.8792C45.9009 30.2628 45.3521 31.3685 45.0989 32.6006C44.9705 33.2247 44.8783 33.8547 44.7444 34.4781C44.6495 34.9209 44.4852 35.3663 43.8383 35.384C43.1915 35.402 43.2085 34.8956 43.0638 34.5426C42.9951 34.3531 42.9504 34.1578 42.9314 33.9602C42.7958 32.977 42.6721 31.9926 42.5377 31.0097C42.2206 28.6973 40.4353 27.8217 38.3821 28.0873C38.306 28.097 38.2167 28.0321 37.9748 27.9446C37.8772 27.3093 37.768 26.6031 37.6328 25.7233C39.8283 26.2392 41.7694 26.6279 43.6584 27.1509C52.6552 29.6391 61.6229 32.2037 70.6327 34.6567C74.6469 35.7497 78.735 36.6452 82.7905 37.628C83.0687 37.6955 83.3534 37.7439 83.6823 37.8107C82.731 38.9719 82.2246 39.1221 80.9603 38.6503C80.5374 38.4924 80.1544 38.2584 79.7354 38.0916C79.3315 37.9036 78.8999 37.7623 78.4521 37.6722C76.8762 37.4524 75.5795 38.1146 75.0285 39.5302C74.636 40.5388 74.487 41.6145 74.1708 42.6471C73.9919 43.2309 73.6945 43.7892 73.4502 44.3596H73.4513ZM42.5803 24.2299C42.6118 23.8762 42.6664 23.5243 42.7433 23.1759C44.3093 17.9861 46.9842 13.2812 51.2631 9.31928C53.4406 7.30326 56.1958 6.04384 59.2673 5.18727L61.8375 8.35256C61.2809 8.35256 61.0024 8.37066 60.728 8.34977C57.8762 8.13219 55.8527 9.71472 55.0382 11.888C54.7842 12.565 54.5695 13.2534 54.3556 13.9407C53.9469 15.2532 53.1364 16.2282 51.4995 16.5827C51.0552 16.6975 50.6288 16.8583 50.2298 17.0616C48.5144 17.8543 47.4635 19.06 47.3698 20.7467C47.3598 21.6963 47.4062 22.6456 47.5088 23.5911C47.5482 24.2032 47.6106 24.8144 47.669 25.5002L42.5803 24.2299ZM37.8673 23.1922C37.9053 22.7845 37.9157 22.5486 37.9512 22.3157C39.05 15.1377 42.6577 9.16803 49.6191 4.86838C51.0847 3.97026 52.6479 3.19437 54.2872 2.55129C56.4507 1.69661 56.6814 1.82995 57.9223 3.58895C57.9595 3.64161 57.9269 3.73045 57.9269 3.79957C57.8477 3.84516 57.7643 3.88509 57.6775 3.9188C57.4161 3.9993 57.1477 4.0633 56.8877 4.14681C53.8006 5.13716 51.0834 6.57706 48.8751 8.71786C45.2805 12.215 42.5857 16.3184 40.9651 20.7622C40.6169 21.6951 40.2687 22.6279 39.8998 23.6166L37.8673 23.1922ZM62.3947 29.8171C63.0344 28.1026 64.6898 27.3244 66.8482 27.5997C69.9203 27.9915 71.9592 29.9435 71.9611 32.5834L62.3947 29.8171ZM70.3745 19.3121C68.3638 20.6655 66.399 20.5577 65.1044 19.0867C64.3062 18.1985 63.8801 17.1069 63.8944 15.9871C63.9093 14.6404 64.5032 14.1232 66.2473 13.9622L70.3745 19.3121ZM50.2119 26.2215C50.0297 25.1129 49.8571 24.1341 49.7109 23.1523C49.5618 22.151 49.1601 21.1463 49.6468 20.1334C52.8028 20.6588 55.0081 24.5516 53.6489 27.1955L50.2119 26.2215Z" fill="url(#paint0_linear_144532_12)"/>
</g>
<path d="M14.328 54.576C14.328 55.552 14.104 56.448 13.656 57.264C13.208 58.064 12.52 58.712 11.592 59.208C10.664 59.704 9.512 59.952 8.136 59.952H5.592V66H1.488V49.152H8.136C9.48 49.152 10.616 49.384 11.544 49.848C12.472 50.312 13.168 50.952 13.632 51.768C14.096 52.584 14.328 53.52 14.328 54.576ZM7.824 56.688C8.608 56.688 9.192 56.504 9.576 56.136C9.96 55.768 10.152 55.248 10.152 54.576C10.152 53.904 9.96 53.384 9.576 53.016C9.192 52.648 8.608 52.464 7.824 52.464H5.592V56.688H7.824ZM24.1686 49.152V66H20.0646V49.152H24.1686ZM35.1107 62.64H42.3587V66H30.4547V62.88L37.6547 52.512H30.4547V49.152H42.3587V52.272L35.1107 62.64ZM53.0076 62.64H60.2556V66H48.3516V62.88L55.5516 52.512H48.3516V49.152H60.2556V52.272L53.0076 62.64ZM77.0244 63.024H70.7364L69.7284 66H65.4324L71.5284 49.152H76.2804L82.3764 66H78.0324L77.0244 63.024ZM75.9684 59.856L73.8804 53.688L71.8164 59.856H75.9684ZM99.0157 54.48C98.7118 53.92 98.2718 53.496 97.6958 53.208C97.1358 52.904 96.4718 52.752 95.7038 52.752C94.3758 52.752 93.3118 53.192 92.5117 54.072C91.7118 54.936 91.3118 56.096 91.3118 57.552C91.3118 59.104 91.7278 60.32 92.5598 61.2C93.4078 62.064 94.5678 62.496 96.0398 62.496C97.0478 62.496 97.8958 62.24 98.5838 61.728C99.2878 61.216 99.7998 60.48 100.12 59.52H94.9118V56.496H103.84V60.312C103.536 61.336 103.016 62.288 102.28 63.168C101.56 64.048 100.64 64.76 99.5198 65.304C98.3998 65.848 97.1358 66.12 95.7278 66.12C94.0638 66.12 92.5758 65.76 91.2638 65.04C89.9678 64.304 88.9518 63.288 88.2158 61.992C87.4958 60.696 87.1357 59.216 87.1357 57.552C87.1357 55.888 87.4958 54.408 88.2158 53.112C88.9518 51.8 89.9678 50.784 91.2638 50.064C92.5598 49.328 94.0398 48.96 95.7038 48.96C97.7198 48.96 99.4158 49.448 100.792 50.424C102.184 51.4 103.104 52.752 103.552 54.48H99.0157ZM117.681 66.168C116.097 66.168 114.641 65.8 113.313 65.064C112.001 64.328 110.953 63.304 110.169 61.992C109.401 60.664 109.017 59.176 109.017 57.528C109.017 55.88 109.401 54.4 110.169 53.088C110.953 51.776 112.001 50.752 113.313 50.016C114.641 49.28 116.097 48.912 117.681 48.912C119.265 48.912 120.713 49.28 122.025 50.016C123.353 50.752 124.393 51.776 125.145 53.088C125.913 54.4 126.297 55.88 126.297 57.528C126.297 59.176 125.913 60.664 125.145 61.992C124.377 63.304 123.337 64.328 122.025 65.064C120.713 65.8 119.265 66.168 117.681 66.168ZM117.681 62.424C119.025 62.424 120.097 61.976 120.897 61.08C121.713 60.184 122.121 59 122.121 57.528C122.121 56.04 121.713 54.856 120.897 53.976C120.097 53.08 119.025 52.632 117.681 52.632C116.321 52.632 115.233 53.072 114.417 53.952C113.617 54.832 113.217 56.024 113.217 57.528C113.217 59.016 113.617 60.208 114.417 61.104C115.233 61.984 116.321 62.424 117.681 62.424Z" fill="url(#paint1_linear_144532_12)"/>
<defs>
<linearGradient id="paint0_linear_144532_12" x1="60.2498" y1="0" x2="60.2498" y2="46.1262" gradientUnits="userSpaceOnUse">
<stop stop-color="#EE4737"/>
<stop offset="1" stop-color="#FAAA3F"/>
</linearGradient>
<linearGradient id="paint1_linear_144532_12" x1="0" y1="58" x2="129" y2="58" gradientUnits="userSpaceOnUse">
<stop stop-color="#EE4436"/>
<stop offset="1" stop-color="#FAAE3F"/>
</linearGradient>
</defs>
</svg>
